<?xml version="1.0" standalone="no"?>
<svg viewBox="0 0 200 200" xmlns="http://www.w3.org/2000/svg">
  <path fill="#FDC816" d="M30,-53.2C41.8,-45.2,56.2,-43,63.9,-35.1C71.5,-27.2,72.3,-13.6,68,-2.5C63.6,8.6,54.1,17.2,46.6,25.3C39.1,33.4,33.6,40.9,26.1,50.8C18.7,60.7,9.3,72.9,-0.2,73.3C-9.8,73.7,-19.7,62.4,-28.1,53.1C-36.6,43.8,-43.7,36.6,-51.1,28.1C-58.4,19.6,-65.9,9.8,-67.9,-1.1C-69.8,-12,-66.2,-24.1,-58.9,-32.7C-51.7,-41.3,-40.8,-46.6,-30.4,-55.3C-19.9,-64.1,-10,-76.3,-0.4,-75.6C9.1,-74.9,18.3,-61.2,30,-53.2Z" transform="translate(100 100)" />
</svg>
