<svg version="1.1" xmlns="http://www.w3.org/2000/svg" xmlns:xlink="http://www.w3.org/1999/xlink" xmlns:sketchjs="https://sketch.io/dtd/" width="250" height="372" viewBox="0 0 250 372">
<path sketchjs:tool="heart" style="fill: none; stroke: #2f1f18; mix-blend-mode: source-over; stroke-linecap: round; stroke-linejoin: miter; stroke-miterlimit: 4; stroke-width: 10;" d="M131.87 0 C65.53 0 2.26 56.12 0.06 144.06 -2.14 232.28 57.2 351.06 236.58 472.15 416.06 351.16 474.83 232.28 472.06 144.06 469.09 50.55 427.83 1.15 326.18 1.15 267.98 1.15 247.4 41.8 235.44 70.44 223.57 41.8 198.1 0 131.87 0 z" transform="matrix(0.9997089532098662,-0.02412486004173935,0.030850039874009055,1.2783933674876835,-123.11310562677266,-276.2639017046406)"/>
<polyline sketchjs:tool="polyline" style="fill: none; stroke: #2f1f18; mix-blend-mode: source-over; stroke-linecap: round; stroke-linejoin: miter; stroke-miterlimit: 4; stroke-width: 10;" points="0.54,200.65 0,36.88 119.31,0 240.24,35.25 240.78,193.06" transform="matrix(1,0,0,0.9160235371479445,4.778741865509772,13.60721239870115)"/>
<g sketchjs:tool="clipart" style="mix-blend-mode: source-over;" transform="matrix(0.7072101402908977,0,0,0.7262843835759102,9.03656790135582,264.00679144582836)">
	<g transform="matrix(1,0,0,1,-205.1999969482422,-461.25)">
		<path fill="#e9b253" d="m212.69 461.26c-0.0787 0.0112-0.13966 0.0376-0.20258 0.0587-2.7913 0.93827-4.6218 9.1999-1.8811 17.534 2.6152 7.9521 10.602 16.301 12.878 18.062 1.2911 2.3696 2.6005 4.6723 3.9647 6.9019-2.9856-1.9759-6.7639-3.089-9.8105-3.7593-0.40986-3.101-3.0252-5.4921-6.1931-5.4921-3.4523 0-6.2509 2.8402-6.2509 6.3439 0 3.5036 2.7986 6.3438 6.2509 6.3438 2.3964 0 4.4784-1.3685 5.5274-3.3775 6.3517 0.26965 12.115 4.8966 15.483 7.5774 4.7521 6.794 9.8879 12.887 15.396 18.415-1.7772-0.91023-3.6933-2.1295-4.8618-3.4362-5.5682-6.2266-12.283-15.825-24.309-16.506-3.8886-0.22023-10.149-1.0712-12.184 1.2335-1.6168 1.8318 7.5163 9.6246 16.64 15.037 4.1335 2.4521 11.929 3.1284 15.049 2.7901 2.9524-0.32009 8.1405 1.6568 12.56 3.7006 3.4086 3.2266 6.9496 6.2541 10.621 9.1046-1.512-1.0771-13.791-1.0138-14.557-2.9957-0.0249-0.0643-0.0291-0.13693-0.029-0.2056-0.50523-2.9891-3.0746-5.2572-6.1641-5.2572-3.4523 0-6.251 2.8402-6.251 6.3438s2.7986 6.3439 6.251 6.3439c2.0347 0 3.8361-0.99828 4.9776-2.5258 0.006-0.0118 0.0223-0.0181 0.029-0.0294 1.2623-2.1566 21.173 4.4509 29.432 7.8417 4.2264 2.623 8.6021 5.0726 13.11 7.4012 1.3994 0.92868-6.9766 0.8803-10.708-0.91045-7.0832-3.3997-15.66-9.7237-27.145-9.1046-3.8892 0.20964-9.9981 2.0869-11.257 4.9047-1.001 2.2396 6.5971 8.2162 16.901 10.602 4.6679 1.081 18.803-0.27119 21.907-0.73425 4.4171-0.65886 12.907-1.7446 16.727-1.5566 5.1327 2.4492 10.429 4.7548 15.888 6.9606-10.122-1.7863-23.932 2.6115-25.467 0.64613-1.1382-1.5664-2.9706-2.5845-5.0355-2.5845-3.4523 0-6.2509 2.8402-6.2509 6.3439 0 3.5036 2.7986 6.3439 6.2509 6.3439 2.4974 0 4.642-1.4932 5.6432-3.6418 0.0678-0.14551 0.1456-0.28921 0.20257-0.44054 1.9125-3.1811 18.285-3.4838 25.409-3.7593 2.2834-0.0883 9.1367 1.0516 12.473 2.1146 0.0534 0.0171 0.12206 0.0418 0.17364 0.0587 0.37575 0.13641 0.75153 0.27532 1.1286 0.41117 0.01 0.005 0.0202 0.0249 0.029 0.0294 4.5791 1.6492 9.2592 3.2544 14.036 4.846-0.0625-0.0136-0.17425-0.0464-0.23153-0.0587 1.5648 0.59798-5.7885 0.92362-9.8973 0.52865-8.3556-0.80319-19.569-3.132-29.171-1.9678-3.8671 0.46887-9.329 4.2556-9.9552 7.2837-0.49769 2.4068 12.12 6.0218 22.689 6.0795 4.7878 0.026 11.877-3.3224 14.412-5.1984 3.4344-2.5414 12.55-4.3439 17.451-4.9341 3.5078 1.1445 7.0455 2.2946 10.65 3.4363-12.774 2.4532-32.77 6.7979-31.168 12.923 0.55066 1.6765 5.879 1.0867 7.2059 1.0867 8.5447-3.5108 14.934-11.538 24.83-13.304 0.24638-0.044 0.51709-0.10829 0.78136-0.17623 1.7142 0.54128 3.452 1.075 5.1802 1.6153-14.291 3.0065-23.116 14.3-18.55 15.742 3.7253 0.97978 12.845 1.2717 16.553 0.0587 6.3038-2.6726-3.6746-5.4929 0.46304-9.692 1.1584-1.1756 4.3154-2.2803 5.9037-3.1132 1.8468 1.8786 5.1654 3.1132 8.9423 3.1132 3.5724 0 6.701-1.1086 8.595-2.8195 1.5803 0.83403 4.7686 1.9612 5.9326 3.1426 4.1376 4.1991-5.8408 7.0194 0.46304 9.692 3.7088 1.213 12.828 0.92103 16.553-0.0587 4.5653-1.4423-4.2589-12.736-18.55-15.742 1.7282-0.54032 3.466-1.0741 5.1802-1.6153 0.26427 0.0681 0.53498 0.13223 0.78136 0.17622 9.8966 1.7666 16.285 9.7936 24.83 13.304 1.3269 0 6.6553 0.58985 7.2059-1.0867 1.6017-6.1248-18.394-10.469-31.168-12.923 3.6043-1.1417 7.142-2.2918 10.65-3.4362 4.9001 0.59022 14.016 2.3927 17.451 4.9341 2.5353 1.8761 9.6241 5.2246 14.412 5.1984 10.568-0.0578 23.186-3.6727 22.689-6.0795-0.62617-3.0281-6.0881-6.8148-9.9552-7.2837-9.6022-1.1642-20.815 1.1646-29.171 1.9678-4.1088 0.39499-11.462 0.0693-9.8973-0.52864 4.6973-1.5667 9.2981-3.1643 13.804-4.7873 0.009-0.005 0.0198-0.0247 0.029-0.0294 0.37711-0.13586 0.75289-0.27478 1.1286-0.41119 0.0516-0.0171 0.12021-0.0418 0.17364-0.0587 3.3363-1.063 10.19-2.203 12.473-2.1146 7.1238 0.27545 23.496 0.57817 25.409 3.7593 0.057 0.15135 0.13479 0.29503 0.20257 0.44056 1.0012 2.1486 3.1458 3.6418 5.6432 3.6418 3.4523 0 6.2509-2.8402 6.2509-6.3438s-2.7986-6.3439-6.2509-6.3439c-2.0649 0-3.8973 1.0181-5.0355 2.5845-1.5345 1.9653-15.345-2.4325-25.467-0.64613 5.4589-2.2058 10.755-4.5114 15.888-6.9606 3.8203-0.18794 12.31 0.89772 16.727 1.5566 3.1043 0.46306 17.239 1.8152 21.907 0.73423 10.304-2.3862 17.902-8.3628 16.901-10.602-1.2594-2.8178-7.3683-4.6951-11.257-4.9047-11.485-0.61907-20.062 5.7049-27.145 9.1046-3.731 1.7907-12.107 1.8391-10.708 0.91045 4.5075-2.3285 8.8832-4.7782 13.11-7.4012 8.2582-3.3908 28.169-9.9983 29.431-7.8417 0.007 0.0114 0.0233 0.0176 0.029 0.0294 1.1414 1.5275 2.9429 2.5258 4.9776 2.5258 3.4523 0 6.251-2.8402 6.251-6.3438s-2.7986-6.3439-6.251-6.3439c-3.0895 0-5.6589 2.2681-6.1641 5.2572 0.00009 0.0687-0.004 0.14129-0.029 0.20559-0.76564 1.9819-13.045 1.9186-14.557 2.9957 3.6712-2.8505 7.2122-5.878 10.621-9.1046 4.4192-2.0438 9.6073-4.0207 12.56-3.7006 3.1199 0.33824 10.915-0.33802 15.049-2.7901 9.1239-5.4127 18.257-13.205 16.64-15.037-2.0342-2.3047-8.295-1.4538-12.184-1.2335-12.026 0.68106-18.741 10.279-24.309 16.506-1.1685 1.3067-3.0847 2.526-4.8618 3.4363 5.508-5.5277 10.644-11.621 15.396-18.415 3.3681-2.6808 9.1309-7.3078 15.483-7.5774 1.0491 2.009 3.131 3.3775 5.5274 3.3775 3.4523 0 6.2509-2.8402 6.2509-6.3439 0-3.5036-2.7986-6.3439-6.2509-6.3439-3.1678 0-5.7832 2.3911-6.1931 5.4921-3.0466 0.67029-6.8248 1.7835-9.8105 3.7593 1.3642-2.2296 2.6736-4.5322 3.9647-6.9019 2.276-1.7611 10.263-10.11 12.878-18.062 2.7407-8.3338 0.91021-16.595-1.8811-17.534-0.0628-0.0212-0.12395-0.0475-0.20258-0.0587-0.0787-0.0112-0.17479-0.007-0.26045 0-2.5712 0.21048-9.9093 6.4834-11.142 10.514-1.6299 5.3312-5.0425 15.875-3.0965 23.496 0.23212 0.06 0.44616 0.16551 0.66562 0.2937l-0.66562-0.2937c-2.6158 4.5534-6.5273 10.615-9.4053 14.685 1.3491-5.7254 2.842-9.7299 2.0836-18.797 2.4545-0.48165 4.312-2.6549 4.312-5.2865 0-2.9846-2.384-5.404-5.3249-5.404-2.9408 0-5.3249 2.4195-5.3249 5.404 0 2.1451 1.225 4.0026 3.0097 4.8754 0.87323 8.6446-3.2895 24.06-6.3956 28.724-0.002 0.002 0.00016 0.0265 0 0.0293-3.0773 3.5885-6.324 6.952-9.7237 10.133 0.71546-2.3533 2.0494-5.0726 4.6014-7.7242 2.1923-2.278 5.8228-10.812 6.4824-15.625 1.456-10.623-1.4016-21.595-3.82-21.44-5.8735 0.69314-9.8524 14.104-10.245 19.825-0.49346 6.5996 1.5368 12.95 1.2733 18.385-0.14865 3.0665-0.95817 7.811-1.5049 9.4864-0.14517 0.12765-0.28846 0.25478-0.43409 0.38181-2.3103 2.015-4.6741 3.9506-7.0902 5.8152-3.8793 0.59762 0.23481-12.331 2.4888-13.363 0.0731-0.0335 0.13378-0.0512 0.20258-0.0587 2.5905-0.77457 4.4856-3.1997 4.4856-6.0795 0-3.5036-2.7986-6.3439-6.2509-6.3439s-6.2509 2.8403-6.2509 6.3439c0 2.2877 1.1915 4.288 2.9808 5.404 1.262 0.79941-4.1433 18.031-6.0484 20.177-0.0512 0.0346-0.0934 0.0828-0.1447 0.11748-0.0118 0.004-0.0173 0.0255-0.029 0.0293-4.3467 2.9332-8.8178 5.647-13.341 8.1942-0.0168 0.008-0.0137 0.0219-0.029 0.0294-1.3937 0.66295 3.6817-2.7349 8.0741-8.1648 3.192-3.946 5.359-9.7813 6.3956-13.422 1.0812-3.7972 1.5201-16.239-0.98394-18.004-1.228-0.86564-4.047 3.3976-7.9005 8.1354-2.3918 2.9406-5.8984 5.3009-7.4953 9.0752-1.8891 4.4648-2.0749 14.492-1.3602 17.592 1.4174 1.1934-2.5535 7.9342-3.8779 8.6641-0.0844 0.0437-0.17591 0.0739-0.26046 0.11747-4.2449 2.1886-8.5234 4.2383-12.791 6.1676-6.9574 3.4476 4.0949-12.118 5.9905-11.748 3.1557-0.44325 5.5853-3.1955 5.5853-6.5201 0-3.6334-2.9023-6.5788-6.4824-6.5788-3.5802 0-6.4824 2.9454-6.4824 6.5788 0 1.9121 0.82926 3.6146 2.1126 4.8166 1.3546 0.795-8.2026 17.356-10.679 18.503-5.1588 2.0365-10.397 3.9314-15.685 5.7271 10.091-3.985 18.623-10.119 21.271-24.024 0.40611-2.133 0.64371-9.1069-1.3023-8.6641-14.156 3.2213-26.566 19.845-28.361 26.991-1.3451 5.3554-13.569 9.7602-20.344 14.538-1.1857 0.33741-2.3727 0.66418-3.5596 0.99858-0.19023-0.41786-0.44089-0.82476-0.75243-1.2042 9.9038-1.6613 27.5-23.519-9.3185-25.317-36.819 1.798-19.251 23.655-9.3475 25.317-0.25997 0.31697-0.48949 0.65427-0.66562 0.99857-1.3141-0.36926-2.6237-0.74272-3.9358-1.116-6.7751-4.7778-18.999-9.1826-20.344-14.538-1.7949-7.1461-14.205-23.769-28.361-26.991-1.946-0.44283-1.7084 6.531-1.3023 8.6641 2.6475 13.905 11.179 20.039 21.271 24.024-5.2884-1.7957-10.526-3.6906-15.685-5.7271-2.4761-1.1474-12.033-17.708-10.679-18.503 1.2833-1.202 2.1126-2.9046 2.1126-4.8166 0-3.6334-2.9023-6.5788-6.4824-6.5788-3.5802 0-6.4825 2.9454-6.4825 6.5788 0 3.3246 2.4296 6.0768 5.5853 6.5201 1.8956-0.37017 12.948 15.196 5.9905 11.748-4.2679-1.9293-8.5463-3.979-12.791-6.1676-0.0845-0.0436-0.17597-0.0738-0.26046-0.11747-1.3244-0.72992-5.2953-7.4706-3.8779-8.6641 0.71476-3.1006 0.52894-13.128-1.3602-17.592-1.597-3.7743-5.1036-6.1346-7.4953-9.0752-3.8535-4.7378-6.6724-9.001-7.9005-8.1354-2.5041 1.7651-2.0651 14.206-0.98394 18.004 1.0366 3.6407 3.2036 9.476 6.3956 13.422 4.3925 5.4299 9.4678 8.8277 8.0741 8.1648-0.0152-0.008-0.0121-0.0212-0.029-0.0294-4.5233-2.5472-8.9944-5.261-13.341-8.1942-0.0118-0.004-0.0172-0.0255-0.029-0.0294-0.0512-0.0345-0.0935-0.0828-0.14469-0.11748-1.9051-2.1458-7.3103-19.378-6.0484-20.177 1.7892-1.116 2.9808-3.1163 2.9808-5.404 0-3.5036-2.7986-6.3439-6.2509-6.3439s-6.2509 2.8402-6.2509 6.3439c0 2.8798 1.8952 5.305 4.4856 6.0795 0.0688 0.008 0.12949 0.0254 0.20258 0.0587 2.254 1.0318 6.3681 13.961 2.4888 13.363-2.4161-1.8646-4.7799-3.8002-7.0902-5.8152-0.14563-0.12703-0.28892-0.25413-0.43409-0.3818-0.54668-1.6754-1.3562-6.4199-1.5048-9.4864-0.26348-5.4352 1.7668-11.786 1.2733-18.385-0.39222-5.7206-4.3711-19.131-10.245-19.825-2.4184-0.15548-5.276 10.817-3.82 21.44 0.65968 4.8127 4.2901 13.347 6.4824 15.625 2.552 2.6516 3.8859 5.371 4.6014 7.7242-3.3997-3.1806-6.6464-6.544-9.7237-10.133-0.00016-0.003 0.002-0.0272 0-0.0294-3.106-4.6638-7.2689-20.079-6.3956-28.724 1.7847-0.87275 3.0097-2.7302 3.0097-4.8754 0-2.9846-2.384-5.404-5.3249-5.404-2.9408 0-5.3249 2.4195-5.3249 5.404 0 2.6317 1.8575 4.8049 4.312 5.2866-0.75833 9.0668 0.73455 13.071 2.0836 18.797-2.878-4.0694-6.7895-10.131-9.4053-14.685l-0.6656 0.29371c0.21944-0.12819 0.43348-0.23374 0.6656-0.29371 1.946-7.6208-1.4666-18.165-3.0965-23.496-1.2324-4.031-8.5705-10.304-11.142-10.514-0.0857-0.007-0.18187-0.0112-0.26046 0zm153.58 106.44c2.6228 0.15988 3.96 3.7593 8.8844 3.7593 6.0608 0 6.6637-5.4462 10.939-3.2307 6.6831 3.8595 0.0315 8.0449-5.267 12.335h-0.029c-1.634-0.65905-3.5562-1.0573-5.6432-1.0573s-4.0382 0.39826-5.6722 1.0573c-0.006-0.005-0.023 0.005-0.029 0-5.2985-4.2904-11.95-8.4758-5.267-12.335 0.80164-0.41542 1.4784-0.56556 2.0836-0.52866z" style="color: #dca038;"/>
	</g>
</g>
<polyline sketchjs:tool="polyline" style="fill: #be212f; stroke: #be212f; mix-blend-mode: source-over; paint-order: stroke fill markers; stroke-linecap: round; stroke-linejoin: miter; stroke-miterlimit: 4; stroke-width: 10;" points="14.63,0 89.68,0 90.46,94.24 0,0 14.63,0 undefined,undefined" transform="matrix(0.948606536127766,0,0,0.9486065361277659,31.681501936647912,195.0991766851705)"/>
<path sketchjs:tool="path" style="fill: #be212f; stroke: #be212f; mix-blend-mode: source-over; paint-order: stroke fill markers; stroke-linecap: round; stroke-linejoin: miter; stroke-miterlimit: 4; stroke-width: 3;" transform="matrix(1,0,0,1,71.4084139,236.2462455)"/>
<path sketchjs:tool="path" style="fill: #be212f; stroke: #be212f; mix-blend-mode: source-over; paint-order: stroke fill markers; stroke-linecap: round; stroke-linejoin: miter; stroke-miterlimit: 4; stroke-width: 3;" d="M95.69 99.31 C21.2 34.43 0 0 0 0 0 0 37.52 32.16 37.52 32.16 37.52 32.16 91.06 89.38 91.06 89.38 " transform="matrix(1,0,0,1,23.062570345579445,191.91581975040503)"/>
<polyline sketchjs:tool="polyline" style="fill: #2f1f18; stroke: #2f1f18; mix-blend-mode: source-over; paint-order: stroke fill markers; stroke-linecap: round; stroke-linejoin: miter; stroke-miterlimit: 4; stroke-width: 10;" points="36.87,14.84 90.83,0 91.05,132.19 0.22,133.09 0,25.18 36.87,14.84 undefined,undefined" transform="matrix(1,0,0,1,24.93346421495616,42.136705741607386)"/>
<polyline sketchjs:tool="polyline" style="fill: #be212f; stroke: #be212f; mix-blend-mode: source-over; paint-order: stroke fill markers; stroke-linecap: round; stroke-linejoin: miter; stroke-miterlimit: 4; stroke-width: 10;" points="36.87,14.84 90.83,0 91.05,132.19 0.22,133.09 0,25.18 36.87,14.84 undefined,undefined" transform="matrix(-0.9991342591267937,0,0,1.0042119248672408,225.58242420873205,41.62571417074651)"/>
<polyline sketchjs:tool="polyline" style="fill: #2f1f18; stroke: #2f1f18; mix-blend-mode: source-over; paint-order: stroke fill markers; stroke-linecap: round; stroke-linejoin: miter; stroke-miterlimit: 4; stroke-width: 10;" points="14.63,0 89.68,0 90.46,94.24 0,0 14.63,0 undefined,undefined" transform="matrix(-0.9410131441643047,0,0,0.9486065361277659,218.8132204607317,195.50282218694275)"/>
<path sketchjs:tool="path" style="fill: #2f1f18; stroke: #2f1f18; mix-blend-mode: source-over; paint-order: stroke fill markers; stroke-linecap: round; stroke-linejoin: miter; stroke-miterlimit: 4; stroke-width: 3;" d="M95.69 99.31 C21.2 34.43 0 0 0 0 " transform="matrix(-0.9762651251810319,-0.011278206486361096,-0.011656769750091604,1.0090343524958307,226.28503878878024,192.71090082832282)"/>
<g sketchjs:tool="clipart" style="mix-blend-mode: source-over;" transform="matrix(0.4745420406301198,0,0,0.5608409951826232,59.2377098550502,184.40720876888736)">
	<path d="m11.211 54.42 8.571 3.773v20.512a5.107 5.107 0 0 0 -2.543 7.628l-.571 3.049q-.86 4.591-1.694 9.064a1.749 1.749 0 0 0 1.077 1.947 14.833 14.833 0 0 0 10.963 0 1.75 1.75 0 0 0 1.076-1.947q-.831-4.473-1.694-9.064l-.57-3.049a5.109 5.109 0 0 0 -2.544-7.633v-18.966l7.442 3.275v23.349c0 3.108 1.917 7.447 11.051 10.473 5.891 1.951 13.784 3.025 22.225 3.025 16.563 0 33.276-4.173 33.276-13.5v-23.347l19.513-8.589a1.75 1.75 0 0 0 0-3.2l-52.084-22.928a1.748 1.748 0 0 0 -1.41 0l-52.084 22.925a1.75 1.75 0 0 0 0 3.2zm11.962 29.1a1.641 1.641 0 1 1 -1.641-1.642 1.643 1.643 0 0 1 1.641 1.641zm-4.473 14.061q.7-3.736 1.412-7.555l.282-1.5a4.8 4.8 0 0 0 2.285 0l.282 1.5q.714 3.819 1.412 7.555a11.332 11.332 0 0 1 -5.673 0zm75.076-33.031v21.808c0 5.7-12.8 10-29.776 10s-29.776-4.3-29.776-10v-21.808l29.076 12.796a1.748 1.748 0 0 0 1.41 0zm-29.776-32.744 47.74 21.013-47.74 21.013-35.667-15.7 35.84-3.573a1.75 1.75 0 1 0 -.346-3.482l-42.01 4.187-5.557-2.445z" style="fill: #ffffff;"/>
</g>
<g sketchjs:tool="clipart" style="mix-blend-mode: source-over;" transform="matrix(0.10113571714528277,0,0,0.0979563536743852,135.19311323246242,197.71470506274707)">
	<path d="M468.43,116.47c-20.951-27.931-67.711-35.652-128.887-21.514-1.312-3.145-2.667-6.234-4.064-9.243a31.984,31.984,0,0,0-35.7-51.282C286.06,22.21,271.358,16,256,16c-17.639,0-34.385,8.137-49.772,24.185C193.338,53.627,182,72.04,172.455,94.955,111.279,80.819,64.52,88.54,43.571,116.469,19.742,148.233,33.374,200.092,79.938,256q-3.81,4.575-7.377,9.17a31.977,31.977,0,0,0-31.646,52.954c-12.76,31.346-11.878,58.02,2.655,77.4,14.094,18.789,39.858,28.436,73.84,28.435,16.534,0,35.021-2.293,55.045-6.921,9.543,22.915,20.883,41.329,33.773,54.771C221.615,487.863,238.361,496,256,496s34.385-8.137,49.772-24.185c12.888-13.441,24.227-31.851,33.77-54.763q6.419,1.483,12.679,2.652a32,32,0,0,0,63.075,2.965c23.9-3.246,42.2-12.549,53.133-27.138,23.828-31.763,10.2-83.622-36.365-139.531C478.627,200.09,492.257,148.232,468.43,116.47Zm-12.8,9.6c18.536,24.709,5.376,69.34-34.231,117.694a464.789,464.789,0,0,0-57.492-52.894c-3.758-29.113-10.125-56.789-18.577-80.817C398.238,98.253,439.125,104.066,455.63,126.071Zm-125.9,271.985a412.988,412.988,0,0,1-55.118-19.685,567.178,567.178,0,0,0,50.432-29.415q10.537-6.891,20.688-14.19A368.316,368.316,0,0,1,329.734,398.056Zm-147.468,0a368.421,368.421,0,0,1-16-63.291q10.128,7.275,20.689,14.19a566.986,566.986,0,0,0,50.432,29.416A413.069,413.069,0,0,1,182.266,398.056Zm0-284.112a412.988,412.988,0,0,1,55.118,19.685,567.178,567.178,0,0,0-50.432,29.415q-10.538,6.891-20.688,14.19A368.316,368.316,0,0,1,182.266,113.944Zm13.442,221.62c-11.216-7.334-22.14-15.059-32.532-22.988a505.5,505.5,0,0,1,0-113.152c10.392-7.929,21.317-15.655,32.532-22.989A544.9,544.9,0,0,1,256,142.216a544.7,544.7,0,0,1,60.292,34.22c11.216,7.334,22.14,15.059,32.532,22.988A501.517,501.517,0,0,1,352,256a501.451,501.451,0,0,1-3.176,56.576c-10.392,7.929-21.317,15.655-32.532,22.989A544.9,544.9,0,0,1,256,369.784,544.7,544.7,0,0,1,195.708,335.564Zm-49.965-36.889A431.841,431.841,0,0,1,101.111,256a432.351,432.351,0,0,1,44.633-42.68C144.594,227.363,144,241.648,144,256S144.594,284.632,145.743,298.675ZM329.734,113.944a368.421,368.421,0,0,1,16,63.291q-10.128-7.275-20.689-14.19a566.986,566.986,0,0,0-50.432-29.416A413.069,413.069,0,0,1,329.734,113.944Zm36.523,99.381A431.841,431.841,0,0,1,410.889,256a432.351,432.351,0,0,1-44.633,42.68C367.406,284.637,368,270.352,368,256S367.406,227.368,366.257,213.325ZM328,64a16,16,0,1,1-16-16A16.019,16.019,0,0,1,328,64ZM256,32c10.468,0,20.791,4.158,30.772,12.349a31.98,31.98,0,0,0,35.094,50.087q1.014,2.239,2,4.53A444.147,444.147,0,0,0,256,124.483a444.153,444.153,0,0,0-67.877-25.522C206.362,56.276,230.834,32,256,32ZM56.37,126.07c16.505-22,57.39-27.818,110.3-16.016-8.45,24.024-14.817,51.694-18.575,80.807a465.419,465.419,0,0,0-57.494,52.9C50.994,195.412,37.833,150.78,56.37,126.07ZM64,280a16,16,0,1,1-16,16A16.019,16.019,0,0,1,64,280ZM56.371,385.931c-12.957-17.282-8.8-40.6-1.618-59.3A31.985,31.985,0,0,0,86.53,273.3q1.99-2.535,4.069-5.068a464.756,464.756,0,0,0,57.494,52.9c3.758,29.113,10.125,56.789,18.577,80.817C113.763,413.748,72.876,407.934,56.371,385.931ZM256,480c-25.166,0-49.638-24.276-67.877-66.962A444.014,444.014,0,0,0,256,387.517a444.27,444.27,0,0,0,67.877,25.522C305.638,455.724,281.166,480,256,480Zm128-48a16,16,0,1,1,16-16A16.019,16.019,0,0,1,384,432Zm71.627-46.067c-8.1,10.81-22.207,17.886-41.033,20.686a32,32,0,0,0-60.183-2.79q-4.485-.852-9.08-1.885c8.45-24.023,14.816-51.693,18.574-80.805a465.329,465.329,0,0,0,57.494-52.9C461.006,316.588,474.166,361.22,455.627,385.933Z" sketchjs:uid="1" style="fill: #ffffff;"/>
	<path d="M256,192a64,64,0,1,0,64,64A64.072,64.072,0,0,0,256,192Zm0,112a48,48,0,1,1,48-48A48.055,48.055,0,0,1,256,304Z" style="fill: #ffffff;"/>
</g>
<g sketchjs:tool="clipart" style="mix-blend-mode: source-over;" transform="matrix(0.5341718240500432,0,0,0.5341718240500432,146.41866555133578,81.00616817374035)">
	<g>
		<path d="M121.25,5H6.75A6.758,6.758,0,0,0,0,11.754v71.5a6.758,6.758,0,0,0,6.75,6.75H44.79L36.412,108H30.623a7.5,7.5,0,0,0,0,15H97.376a7.5,7.5,0,1,0,0-15H91.588L83.21,90.007h38.04a6.758,6.758,0,0,0,6.75-6.75v-71.5A6.758,6.758,0,0,0,121.25,5ZM3.5,11.754A3.254,3.254,0,0,1,6.75,8.5h114.5a3.254,3.254,0,0,1,3.25,3.25V68.872H118V16.754A1.751,1.751,0,0,0,116.25,15H11.75A1.751,1.751,0,0,0,10,16.754V68.872H3.5Zm111,57.118H13.5V18.5h101ZM101.375,115.5a4,4,0,0,1-4,4H30.623a4,4,0,0,1,0-8H97.376A4,4,0,0,1,101.375,115.5ZM87.727,108H40.272l8.379-17.992h30.7ZM124.5,83.257a3.254,3.254,0,0,1-3.25,3.25H6.75a3.254,3.254,0,0,1-3.25-3.25V72.372h121Z" sketchjs:uid="2" style="fill: #ffffff;"/>
		<path d="M71.875,77.69H56.125a1.75,1.75,0,0,0,0,3.5h15.75a1.75,1.75,0,0,0,0-3.5Z" style="fill: #ffffff;"/>
	</g>
</g>
<g sketchjs:tool="clipart" style="mix-blend-mode: source-over;" transform="matrix(0.19316199679668214,0,0,0.20841890408450203,30.199811715399598,70.49432869656108)">
	<path d="M404.72,82.944c-0.027,0-0.054,0-0.08,0h0h-27.12v-9.28c0.146-3.673-2.23-6.974-5.76-8   c-18.828-4.934-38.216-7.408-57.68-7.36c-32,0-75.6,7.2-107.84,40c-32-33.12-75.92-40-107.84-40   c-19.464-0.048-38.852,2.426-57.68,7.36c-3.53,1.026-5.906,4.327-5.76,8v9.2H8c-4.418,0-8,3.582-8,8v255.52c0,4.418,3.582,8,8,8   c1.374-0.004,2.724-0.362,3.92-1.04c0.8-0.4,80.8-44.16,192.48-16h1.2h0.72c0.638,0.077,1.282,0.077,1.92,0   c112-28.4,192,15.28,192.48,16c2.475,1.429,5.525,1.429,8,0c2.46-1.42,3.983-4.039,4-6.88V90.944   C412.72,86.526,409.139,82.944,404.72,82.944z M16,333.664V98.944h19.12v200.64c-0.05,4.418,3.491,8.04,7.909,8.09   c0.432,0.005,0.864-0.025,1.291-0.09c16.55-2.527,33.259-3.864,50-4c23.19-0.402,46.283,3.086,68.32,10.32   C112.875,307.886,62.397,314.688,16,333.664z M94.32,287.664c-14.551,0.033-29.085,0.968-43.52,2.8V79.984   c15.576-3.47,31.482-5.241,47.44-5.28c29.92,0,71.2,6.88,99.84,39.2l0.24,199.28C181.68,302.304,149.2,287.664,94.32,287.664z    M214.32,113.904c28.64-32,69.92-39.2,99.84-39.2c15.957,0.047,31.863,1.817,47.44,5.28v210.48   c-14.354-1.849-28.808-2.811-43.28-2.88c-54.56,0-87.12,14.64-104,25.52V113.904z M396.64,333.664   c-46.496-19.028-97.09-25.831-146.96-19.76c22.141-7.26,45.344-10.749,68.64-10.32c16.846,0.094,33.663,1.404,50.32,3.92   c4.368,0.663,8.447-2.341,9.11-6.709c0.065-0.427,0.095-0.859,0.09-1.291V98.944h19.12L396.64,333.664z" style="fill: #ffffff;"/>
</g>
</svg>