<?xml version="1.0" standalone="no"?>
<svg viewBox="0 0 200 200" xmlns="http://www.w3.org/2000/svg">
  <path fill="#FDC816" d="M48.5,-68.3C62.8,-66.3,74.2,-52.7,79.4,-37.4C84.5,-22.2,83.4,-5.2,80,10.8C76.7,26.8,71.2,41.9,60.1,48.8C49,55.8,32.4,54.7,17.8,57.5C3.3,60.2,-9.1,66.9,-19.4,64.6C-29.7,62.3,-37.9,51.1,-46,40.5C-54.1,30,-62.2,20,-69.2,6.7C-76.2,-6.7,-82.1,-23.4,-76,-33.8C-69.8,-44.1,-51.5,-48,-36.9,-49.8C-22.2,-51.7,-11.1,-51.6,3,-56.2C17.1,-60.9,34.2,-70.4,48.5,-68.3Z" transform="translate(100 100)" />
</svg>
