<?xml version="1.0" standalone="no"?>
<!DOCTYPE svg PUBLIC "-//W3C//DTD SVG 20010904//EN"
 "http://www.w3.org/TR/2001/REC-SVG-20010904/DTD/svg10.dtd">
<svg version="1.0" xmlns="http://www.w3.org/2000/svg"
 width="744.000000pt" height="744.000000pt" viewBox="0 0 744.000000 744.000000"
 preserveAspectRatio="xMidYMid meet">
<metadata>
Created by potrace 1.14, written by Peter Selinger 2001-2017
</metadata>
<g transform="translate(0.000000,744.000000) scale(0.100000,-0.100000)"
fill="#000000" stroke="none">
<path d="M3630 7245 c-25 -8 -110 -32 -190 -55 -80 -22 -167 -48 -195 -56 -27
-9 -57 -18 -65 -20 -8 -2 -42 -11 -75 -20 -33 -9 -64 -17 -70 -18 -5 -2 -35
-10 -66 -20 -31 -9 -65 -18 -75 -20 -11 -2 -41 -11 -69 -20 -45 -14 -638 -182
-675 -191 -8 -3 -55 -16 -105 -30 -136 -40 -258 -75 -276 -79 -8 -2 -74 -21
-145 -41 -71 -20 -169 -48 -219 -61 -49 -14 -112 -32 -138 -40 l-48 -16 2
-1595 2 -1595 46 -57 c25 -31 48 -58 51 -61 4 -3 64 -72 135 -155 71 -82 147
-170 169 -194 50 -54 59 -64 115 -127 240 -268 793 -823 1080 -1084 15 -14 68
-62 118 -108 51 -46 102 -93 115 -104 13 -11 39 -34 58 -51 19 -18 87 -77 150
-132 63 -54 122 -106 131 -115 9 -8 34 -29 55 -47 21 -18 104 -86 184 -152 80
-67 150 -121 155 -121 6 0 37 26 71 58 33 31 109 102 168 157 385 355 979 954
1206 1214 8 10 44 51 80 91 139 155 120 134 250 285 52 61 113 133 135 159 22
27 45 54 50 60 22 24 287 359 378 478 l97 126 -2 1553 -3 1553 -90 23 c-49 13
-97 25 -105 27 -8 2 -68 18 -133 36 -64 17 -125 33 -135 35 -9 3 -84 23 -167
45 -212 57 -435 117 -540 145 -220 58 -404 107 -455 122 -30 8 -71 19 -90 23
-19 5 -87 23 -150 40 -178 48 -343 92 -369 96 -13 3 -31 9 -40 13 -9 5 -19 9
-23 10 -5 1 -9 1 -10 2 -2 0 -10 2 -18 4 -8 1 -44 11 -80 20 -88 24 -127 26
-180 10z m170 -199 c52 -14 128 -34 168 -44 40 -11 73 -20 75 -20 1 -1 9 -3
17 -6 8 -2 71 -19 140 -36 69 -17 132 -34 140 -36 8 -3 16 -5 17 -5 2 0 17 -5
35 -11 18 -5 49 -14 68 -18 19 -5 69 -18 110 -30 41 -11 85 -23 98 -26 12 -2
199 -52 415 -110 215 -58 424 -114 462 -124 39 -10 131 -34 205 -54 74 -20
144 -39 155 -42 11 -3 25 -7 30 -8 6 -2 25 -7 43 -11 18 -4 35 -12 38 -16 3
-5 8 -646 10 -1424 l5 -1416 -48 -62 c-26 -34 -51 -64 -55 -65 -4 -2 -8 -10
-8 -17 0 -7 -4 -15 -8 -17 -5 -1 -32 -34 -62 -73 -29 -38 -62 -79 -72 -90 -15
-17 -72 -87 -223 -275 -32 -40 -186 -221 -195 -230 -3 -3 -34 -39 -70 -80 -35
-41 -71 -82 -80 -91 -17 -18 -145 -160 -172 -192 -135 -155 -804 -831 -1028
-1039 -63 -58 -140 -129 -170 -157 -30 -28 -60 -51 -66 -51 -5 0 -19 8 -30 18
-10 9 -51 43 -89 75 -72 60 -159 134 -179 152 -6 6 -40 35 -76 65 -36 30 -74
64 -86 75 -12 11 -54 49 -95 85 -145 129 -185 164 -234 211 -27 26 -61 57 -75
69 -162 140 -783 762 -991 993 -19 21 -52 57 -74 80 -22 24 -70 76 -107 117
-61 69 -80 90 -126 145 -57 67 -148 173 -164 189 -10 11 -18 25 -19 30 -2 24
-12 2922 -10 2942 1 8 22 16 111 39 3 1 12 4 20 7 8 4 89 27 180 52 91 25 269
76 395 112 127 36 237 67 245 69 8 2 175 49 370 105 195 55 362 103 371 105
46 10 464 130 524 150 55 18 58 18 165 -9z"/>
<path d="M3818 6732 c-2 -4 -3 -653 -3 -1442 l0 -1435 25 -1 c14 -1 313 -5
665 -8 352 -3 793 -8 981 -9 l341 -4 1 366 c1 337 3 1775 2 1918 l0 62 -52 15
c-29 8 -89 25 -133 37 -44 12 -100 28 -125 35 -107 31 -236 66 -253 69 -9 2
-21 6 -25 9 -5 3 -19 7 -33 10 -13 3 -55 14 -94 26 -38 12 -77 23 -85 25 -18
4 -99 26 -200 54 -41 12 -82 23 -90 25 -26 7 -383 105 -420 116 -19 6 -134 37
-255 70 -121 34 -225 63 -232 65 -7 2 -14 1 -15 -3z"/>
<path d="M3545 6704 c-44 -12 -156 -43 -250 -69 -93 -25 -209 -57 -256 -71
-47 -13 -94 -26 -105 -29 -18 -4 -214 -57 -478 -131 -71 -20 -134 -37 -140
-39 -6 -1 -18 -5 -26 -8 -13 -5 -108 -31 -151 -41 -8 -2 -65 -18 -125 -36 -60
-17 -116 -33 -124 -36 -8 -2 -31 -8 -50 -13 -19 -6 -73 -20 -120 -32 -47 -12
-89 -25 -93 -29 -8 -7 -9 -373 -5 -1865 l2 -471 270 3 c697 6 1512 15 1621 16
l120 2 1 48 c0 26 3 50 7 53 3 3 4 11 1 18 -8 20 -9 116 -2 116 4 0 5 6 2 14
-3 8 -6 599 -7 1314 -2 716 -5 1302 -7 1304 -3 2 -41 -6 -85 -18z"/>
<path d="M1646 3619 c8 -8 14 -21 14 -28 0 -18 98 -155 204 -285 50 -61 97
-119 106 -130 8 -10 20 -23 25 -30 6 -6 28 -31 49 -56 217 -249 631 -674 910
-935 59 -55 124 -116 145 -135 48 -45 203 -185 261 -236 24 -21 51 -46 60 -54
61 -56 154 -136 164 -139 6 -2 25 -19 43 -38 17 -18 33 -33 35 -33 4 0 3 282
-6 1260 -3 289 -5 599 -5 690 l-1 165 -1009 0 c-919 0 -1008 -1 -995 -16z"/>
<path d="M3819 3620 c-3 -10 -21 -1675 -20 -1800 1 -49 0 -115 0 -185 -2 -140
-5 -133 41 -88 22 22 67 65 101 94 34 30 74 65 89 79 15 14 60 54 100 90 77
68 92 82 285 263 227 212 689 681 830 841 6 6 30 34 55 62 41 45 85 96 180
210 87 103 193 241 249 324 24 36 53 75 64 88 11 12 16 23 11 23 -30 4 -1984
3 -1985 -1z"/>
<path d="M1488 2143 c-23 -26 -35 -100 -26 -166 6 -49 58 -181 77 -197 3 -3
18 -21 32 -40 15 -19 42 -52 60 -72 19 -21 45 -56 58 -79 21 -38 21 -41 5 -34
-11 5 -40 15 -66 24 -33 11 -51 24 -58 42 -11 26 -55 57 -77 53 -7 -1 -19 -2
-26 -3 -8 0 -24 -10 -37 -21 -32 -28 -34 -100 -4 -131 32 -32 87 -33 120 -2
35 32 68 26 155 -26 49 -29 81 -60 137 -132 40 -52 89 -111 108 -133 19 -21
32 -41 29 -44 -2 -3 -24 16 -47 43 -116 130 -173 179 -238 205 -45 19 -50 19
-145 24 -88 4 -125 -4 -125 -30 0 -33 152 -164 246 -212 44 -22 95 -32 191
-37 79 -4 169 -37 214 -78 19 -18 53 -47 74 -65 l40 -33 -75 6 c-80 7 -125 22
-125 43 0 20 -42 59 -70 64 -26 5 -82 -23 -90 -45 -29 -81 24 -152 99 -133 14
3 31 13 40 21 22 22 61 19 172 -15 135 -40 250 -86 304 -120 25 -15 67 -40 95
-54 27 -14 44 -26 37 -27 -33 -3 -51 -2 -99 4 -28 4 -53 11 -55 15 -6 15 -215
110 -267 122 -76 18 -172 7 -228 -26 -33 -19 -43 -31 -41 -47 4 -29 83 -86
160 -117 56 -22 77 -25 193 -24 72 0 155 4 185 8 223 32 228 31 332 -17 51
-24 100 -46 108 -49 8 -3 -16 -6 -55 -6 -38 -1 -83 -3 -100 -6 -121 -19 -160
-18 -186 3 -51 40 -113 29 -137 -24 -18 -40 -14 -71 12 -102 31 -36 95 -39
126 -6 11 12 20 27 20 32 0 39 357 71 471 41 68 -17 280 -92 275 -97 -5 -6
-128 -5 -171 1 -16 2 -58 7 -92 10 -34 4 -72 9 -85 12 -36 7 -181 6 -214 -2
-38 -9 -112 -62 -120 -86 -9 -29 13 -46 85 -68 121 -35 230 -45 296 -24 44 13
117 45 125 55 21 26 134 62 225 73 51 6 195 -38 155 -48 -14 -3 -54 -12 -90
-21 -36 -8 -74 -17 -85 -19 -64 -13 -185 -65 -217 -94 -42 -36 -8 -73 61 -65
37 4 74 24 156 83 118 86 186 114 248 104 45 -7 48 -20 6 -29 -92 -20 -229
-133 -229 -187 0 -20 5 -28 18 -29 9 0 26 -2 37 -5 31 -6 137 -6 170 1 53 11
60 27 33 74 -27 47 -22 62 33 94 36 21 36 21 75 2 52 -25 158 -26 195 -2 29
20 48 16 96 -20 l33 -24 -15 -37 c-9 -20 -20 -39 -25 -42 -18 -11 14 -41 52
-49 50 -12 196 -5 214 10 17 14 11 41 -20 82 -27 37 -138 109 -194 127 -31 10
-39 16 -29 22 52 29 121 7 252 -82 55 -37 114 -74 130 -82 24 -13 86 -17 127
-9 15 2 -3 47 -26 68 -24 20 -117 60 -161 69 -11 2 -31 8 -45 13 -14 6 -61 17
-105 26 -73 15 -99 23 -82 26 12 2 22 6 37 12 45 20 102 36 113 32 6 -2 26 -6
42 -9 81 -13 177 -45 195 -65 10 -12 52 -32 107 -53 47 -17 69 -20 142 -15
130 10 256 48 268 83 5 14 -49 69 -89 90 -25 13 -57 18 -128 18 -95 0 -238
-12 -253 -21 -13 -8 -206 -12 -211 -5 -4 6 173 74 224 87 84 20 121 23 225 20
66 -2 142 -7 169 -10 57 -7 126 -33 126 -47 0 -16 28 -39 60 -48 40 -11 92 23
101 67 18 89 -79 145 -149 85 -23 -20 -38 -20 -163 -3 -31 4 -84 7 -117 7 -34
-1 -62 2 -62 7 0 4 5 7 11 7 6 0 51 19 100 41 88 41 90 42 172 36 45 -4 98 -9
117 -12 70 -10 157 -17 240 -20 101 -3 187 20 267 72 110 70 101 109 -32 150
-28 9 -120 9 -155 0 -73 -18 -101 -31 -258 -112 -33 -17 -75 -29 -115 -32 -69
-6 -69 0 5 40 25 14 63 36 85 49 21 13 49 29 63 35 33 16 260 91 291 97 13 3
24 5 24 6 0 1 16 3 35 4 23 2 42 -4 57 -17 34 -31 90 -27 120 7 47 55 17 139
-53 152 -30 5 -40 2 -65 -22 -16 -15 -29 -33 -29 -41 0 -17 -27 -30 -78 -37
-23 -3 -60 -9 -83 -12 l-40 -5 42 38 c24 21 54 49 68 62 32 29 96 62 105 54 3
-4 6 -1 6 5 0 10 36 16 166 26 69 6 134 28 181 63 17 12 34 23 37 23 17 0 166
144 166 160 0 19 -45 32 -109 31 -98 -2 -124 -7 -188 -37 -56 -27 -100 -66
-211 -187 -29 -31 -57 -57 -63 -57 -5 0 0 11 13 24 42 43 105 117 143 170 47
66 59 78 109 111 29 19 72 41 95 50 42 14 44 14 73 -10 31 -26 76 -32 109 -15
21 12 45 57 43 80 -1 8 -2 20 -3 26 0 6 -13 24 -28 39 -23 22 -34 26 -65 22
-41 -5 -62 -21 -72 -54 -4 -14 -19 -24 -39 -28 -18 -4 -36 -10 -42 -14 -5 -4
-22 -12 -37 -19 l-27 -11 29 49 c16 28 43 65 59 82 67 74 91 103 91 111 0 4
11 25 24 46 41 65 56 143 48 257 -1 12 -11 33 -23 48 -19 24 -22 25 -49 11
-24 -13 -82 -66 -116 -108 -11 -13 -41 -107 -50 -152 -2 -11 -7 -40 -12 -65
-5 -25 -7 -72 -5 -105 3 -57 1 -64 -53 -152 -63 -103 -77 -119 -64 -71 15 56
20 91 21 158 1 57 4 67 30 91 35 32 38 75 9 107 -12 12 -24 22 -28 23 -4 0
-16 2 -27 4 -29 5 -65 -29 -71 -67 -4 -25 1 -41 19 -65 24 -33 26 -55 12 -153
-12 -86 -41 -197 -55 -215 -5 -5 -8 -12 -8 -15 -1 -32 -151 -213 -152 -184 0
7 20 41 45 77 49 72 90 167 103 237 22 124 -9 320 -52 320 -23 0 -63 -38 -85
-80 -42 -80 -62 -188 -55 -286 15 -189 9 -309 -17 -334 -42 -41 -100 -80 -110
-74 -16 9 -3 98 22 145 11 22 30 45 43 51 23 10 39 34 50 73 11 37 -45 105
-81 99 -7 -1 -20 -2 -28 -3 -9 0 -27 -12 -40 -26 -33 -32 -34 -93 -4 -121 25
-22 22 -61 -11 -169 -39 -127 -49 -142 -119 -187 -109 -70 -122 -71 -59 -6
103 105 146 217 144 375 -1 79 -5 106 -17 118 -17 17 -26 10 -101 -86 -15 -19
-47 -56 -71 -83 -58 -63 -70 -105 -72 -251 -2 -123 -12 -164 -50 -195 -9 -8
-60 -35 -113 -61 -67 -33 -99 -44 -104 -36 -14 23 83 162 120 172 13 3 35 18
48 32 52 56 11 153 -66 153 -76 0 -117 -80 -74 -147 12 -20 12 -28 -3 -65 -9
-24 -21 -50 -27 -58 -6 -8 -17 -25 -23 -38 -32 -55 -39 -67 -55 -86 -10 -11
-18 -23 -18 -26 0 -3 -24 -14 -52 -25 -29 -10 -57 -21 -63 -25 -5 -4 -21 -11
-35 -15 -16 -4 -7 6 25 28 60 41 117 102 143 154 44 85 66 215 43 252 -11 17
-65 1 -136 -41 -56 -33 -200 -175 -210 -207 -3 -12 -10 -21 -14 -21 -4 0 -18
-24 -31 -53 -12 -28 -28 -63 -34 -76 -6 -13 -29 -37 -51 -53 -22 -15 -45 -32
-52 -38 -7 -5 -14 -10 -17 -10 -3 0 -40 -21 -83 -46 -87 -52 -118 -66 -127
-57 -3 4 15 19 42 34 99 57 151 149 123 221 -36 94 -236 148 -421 113 -48 -9
-65 -13 -65 -15 0 -1 -7 -3 -15 -5 -8 -1 -32 -13 -53 -25 -69 -41 -86 -112
-43 -184 31 -52 75 -92 123 -113 24 -10 32 -18 22 -20 -21 -5 -48 7 -162 74
-138 82 -162 104 -185 166 -29 77 -75 141 -161 227 -77 77 -180 140 -228 140
-25 0 -27 -10 -24 -98 2 -59 42 -163 82 -216 19 -24 57 -61 86 -82 29 -21 51
-39 49 -41 -1 -2 -36 11 -77 27 -74 30 -75 32 -126 113 -81 132 -96 170 -73
193 19 19 20 76 3 106 -48 80 -166 43 -165 -51 1 -46 19 -70 72 -95 53 -25
148 -176 110 -176 -20 0 -205 98 -220 116 -27 33 -48 88 -41 109 15 44 -1 216
-24 263 -8 15 -31 45 -50 67 -20 22 -61 70 -91 108 -30 37 -59 67 -64 67 -36
0 -46 -195 -15 -285 32 -92 69 -158 122 -214 29 -30 53 -57 53 -58 0 -5 -64
32 -122 71 -31 20 -59 47 -63 59 -4 12 -8 27 -10 32 -2 6 -11 30 -20 55 -10
25 -21 63 -26 85 -5 22 -12 50 -14 63 -4 14 2 30 15 44 11 12 20 27 21 32 0 6
2 19 4 30 10 51 -50 103 -105 91 -80 -18 -92 -126 -19 -169 34 -20 55 -62 69
-134 11 -60 -2 -80 -34 -54 -82 64 -89 73 -100 130 -13 60 -13 111 -2 202 8
63 10 166 3 195 -27 115 -62 192 -103 224 -59 46 -89 -27 -89 -214 0 -94 4
-127 18 -154 9 -19 17 -40 17 -47 0 -18 39 -87 67 -120 30 -35 57 -84 46 -84
-4 0 -34 28 -67 63 -92 98 -134 211 -152 416 -5 56 -3 66 17 87 42 45 14 133
-43 134 -28 0 -67 -22 -73 -41 -16 -49 -14 -62 17 -92 28 -29 31 -37 33 -107
2 -41 8 -95 14 -120 6 -25 11 -49 11 -55 0 -5 -29 37 -64 95 -60 97 -64 107
-59 150 12 104 -42 314 -95 368 -32 33 -99 82 -112 82 -4 0 -14 -8 -22 -17z
m2486 -1548 c34 -26 28 -60 -21 -109 -25 -25 -48 -46 -51 -47 -4 0 -49 -1
-101 -2 l-93 -2 -49 48 c-53 52 -60 76 -29 107 25 25 58 26 90 3 63 -45 114
-44 174 2 30 23 48 23 80 0z"/>
</g>
</svg>
